<svg xmlns="http://www.w3.org/2000/svg" width="495" height="195">
        <style>
            .stat { font: 700 28px 'Segoe UI', Ubuntu, sans-serif; }
            .label { font: 600 14px 'Segoe UI', Ubuntu, sans-serif; }
            .date { font: 400 12px 'Segoe UI', Ubuntu, sans-serif; fill: #768390; }
        </style>
        
        <rect width="495" height="195" fill="#0d1117" rx="4.5" />

        <line x1="165" y1="50" x2="165" y2="145" stroke="#E4E2E2" stroke-opacity="0.2" stroke-width="1.5" />
        <line x1="330" y1="50" x2="330" y2="145" stroke="#E4E2E2" stroke-opacity="0.2" stroke-width="1.5" />

        <text x="82.5" y="108" fill="#00a8f3" class="stat" text-anchor="middle">39</text>
        <text x="82.5" y="152" fill="#00a8f3" class="label" text-anchor="middle">Total Contributions</text>
        <text x="82.5" y="172" class="date" text-anchor="middle">Mar 09, 2025 - Present</text>

        <path d="M 269 69 A 38 38 0 1 1 226 69" fill="none" stroke="#00a8f3" stroke-width="4.5" stroke-linecap="round" />

        <g transform="translate(230.5, 41) scale(1.4)">
            <path fill="#00a8f3" d="M11.96 19.46c-1.35 0-2.62-.52-3.57-1.45-.96-.93-1.48-2.22-1.46-3.57.03-2.12 1.13-3.9 2.1-5.47.41-.66.81-1.31 1.15-2.03.4-1.03.51-2.13.36-3.26-.01-.04-.03-.07-.05-.1.18-.2.43-.3.7-.3.26 0 .51.1.7.3.16.35.33.7.53 1.05.5 1.05 1.1 2.15 1.83 3.06.75.95 1.63 1.82 2.45 2.77 1.05 1.25 1.7 2.8 1.68 4.4-.01 1.4-.55 2.72-1.53 3.67-.98.98-2.31 1.52-3.71 1.52zm-1.63-4.5c.23.25.55.38.88.38.33 0 .65-.13.88-.38.21-.23.33-.53.31-.85 0-.25-.08-.48-.23-.67l-1.36-1.58c-.38-.43-.61-.98-.68-1.55-.03-.55.1-1.08.35-1.55l.06-.13c-.23.37-.45.75-.66 1.12-.38.63-.78 1.3-1.15 2.02-.18.35-.35.72-.48 1.12-.18.58-.25 1.18-.16 1.78.08.52.31.98.66 1.37z" />
        </g>
        
        <text x="247.5" y="108" fill="#28a745" class="stat" text-anchor="middle">2</text>
        <text x="247.5" y="152" fill="#28a745" class="label" text-anchor="middle">Current Streak</text>
        <text x="247.5" y="172" class="date" text-anchor="middle">Mar 08</text>

        <text x="412.5" y="108" fill="#00a8f3" class="stat" text-anchor="middle">3</text>
        <text x="412.5" y="152" fill="#00a8f3" class="label" text-anchor="middle">Longest Streak</text>
        <text x="412.5" y="172" class="date" text-anchor="middle">Feb 17 - Feb 19</text>
    </svg>